<svg xmlns="http://www.w3.org/2000/svg" width="21.715" height="23.4" viewBox="0 0 21.715 23.4">
  <path id="Pfad_3253" data-name="Pfad 3253" d="M20.558,0H.765A.793.793,0,0,0,0,.821V4.928a.852.852,0,0,0,.252.61l7.36,7.148v9.491A.793.793,0,0,0,8.377,23a.716.716,0,0,0,.341-.087l4.567-2.464a.83.83,0,0,0,.421-.735V12.687l7.36-7.146a.852.852,0,0,0,.252-.612V.821A.793.793,0,0,0,20.558,0ZM19.8,4.563l-7.36,7.146a.852.852,0,0,0-.252.612v6.885L9.139,20.849V12.321a.851.851,0,0,0-.252-.61L1.526,4.563V1.643H19.8Z" transform="translate(0.196 0.2)" fill="#fff" stroke="#fff" stroke-width="0.4"/>
</svg>
